<?xml version="1.0" encoding="utf-8"?>
<!-- Generator: Adobe Illustrator 16.0.3, SVG Export Plug-In . SVG Version: 6.00 Build 0)  -->
<!DOCTYPE svg PUBLIC "-//W3C//DTD SVG 1.1//EN" "http://www.w3.org/Graphics/SVG/1.1/DTD/svg11.dtd">
<svg version="1.1" id="Layer_1" xmlns="http://www.w3.org/2000/svg" xmlns:xlink="http://www.w3.org/1999/xlink" x="0px" y="0px"
	 width="50px" height="1710px" viewBox="0 0 50 1710" enable-background="new 0 0 50 1710" xml:space="preserve">
<path fill-rule="evenodd" clip-rule="evenodd" d="M48.825,585.518c-0.16-0.004-0.318-0.12-0.479-0.15
	c-4.113-0.789-8.227-1.576-12.338-2.358c-6.812-1.294-13.62-2.583-20.429-3.883c-0.223-0.042-0.443-0.185-0.665-0.28
	c1.773-0.939,3.528-1.417,5.283-1.885c2.441-0.65,4.882-1.295,7.323-1.935c0.525-0.138,0.867-0.685,0.982-2.753
	c0.113-2.01-0.156-2.814-0.6-3.562c-1.082-1.827-2.163-3.666-3.236-5.542c-0.228-0.398-0.427-0.98-0.72-1.664
	c0.301-0.778,0.502-1.377,0.725-1.858c0.884-1.909,1.782-3.755,2.663-5.675c0.785-1.705,0.869-3.663,0.275-6.12
	c-0.416-1.729-0.881-3.345-1.258-5.164c-0.209-1.007-0.396-2.327-0.398-3.509c-0.026-15.868-0.029-31.738,0.007-47.605
	c0.002-1.132,0.278-2.543,0.554-3.322c0.521-1.472,1.137-2.564,1.707-3.84c0.896-2.006,0.867-4.709-0.084-6.581
	c-0.768-1.514-1.553-2.937-2.325-4.435c-0.201-0.39-0.379-0.91-0.723-1.747c0.39-0.287,0.579-0.479,0.771-0.561
	c4.652-1.971,9.306-3.935,13.96-5.888c3.063-1.287,6.131-2.534,9.193-3.843c0.877-0.375,1.049-1.195,0.965-3.821
	c-0.08-2.461-0.65-2.261-1.133-2.364c-3.082-0.663-6.168-1.272-9.252-1.888c-6.465-1.292-12.931-2.573-19.396-3.87
	c-1.153-0.232-2.306-0.52-3.458-0.782c-0.001-0.129-0.002-0.258-0.003-0.388c0.221-0.095,0.441-0.226,0.662-0.28
	c3.447-0.838,6.894-1.681,10.34-2.483c0.471-0.109,0.734-0.666,0.863-2.325c0.135-1.697,0.039-2.784-0.404-3.671
	c-0.764-1.538-1.518-3.133-2.275-4.716c-0.805-1.684-0.817-1.944-0.214-4.278c0.313-1.218,0.63-2.434,0.948-3.635
	c1.67-6.271,1.674-5.677,0.338-12.867c-0.529-2.851-0.764-5.726-0.754-9.086c0.035-11.267,0.004-22.537-0.004-33.806
	c-0.002-1.993-0.012-3.986-0.023-5.979c-0.001-0.253-0.01-0.48-0.021-0.695c0.014-0.358,0.023-0.751,0.023-1.228
	c0.006-5.596,0.005-11.192-0.002-16.789c-0.035-29.052-0.07-58.104-0.115-87.155c-0.004-1.766,0.158-3.069,0.588-4.129
	c0.625-1.546,1.235-3.172,1.828-4.855c0.59-1.667,0.51-4.469-0.165-5.711c-0.681-1.253-1.388-2.34-2.077-3.55
	c-0.197-0.348-0.369-0.866-0.653-1.546c0.305-0.317,0.451-0.549,0.604-0.616c5.354-2.336,10.707-4.658,16.061-6.98
	c2.179-0.945,4.357-1.891,6.535-2.827c0.545-0.234,0.949-0.71,0.928-3.072c-0.02-2.223-0.323-3.011-0.926-3.025
	c-0.16-0.004-0.318-0.12-0.479-0.15c-4.113-0.789-8.227-1.576-12.338-2.358c-6.811-1.294-13.619-2.583-20.428-3.883
	c-0.223-0.042-0.443-0.185-0.665-0.28c1.773-0.939,3.528-1.417,5.283-1.885c2.441-0.65,4.882-1.295,7.324-1.935
	c0.525-0.138,0.867-0.685,0.982-2.753c0.113-2.01-0.157-2.814-0.6-3.562c-1.082-1.827-2.163-3.666-3.237-5.542
	c-0.228-0.398-0.427-0.98-0.72-1.664c0.301-0.778,0.502-1.377,0.725-1.858c0.884-1.909,1.781-3.755,2.663-5.675
	c0.784-1.705,0.868-3.663,0.275-6.12c-0.416-1.729-0.881-3.345-1.258-5.164c-0.209-1.007-0.397-2.327-0.399-3.509
	c-0.026-15.868-0.029-31.738,0.007-47.605c0.002-1.132,0.279-2.543,0.554-3.322c0.521-1.472,1.136-2.564,1.707-3.84
	c0.896-2.006,0.866-4.709-0.084-6.581c-0.769-1.514-1.554-2.937-2.325-4.435c-0.201-0.39-0.379-0.91-0.723-1.747
	c0.39-0.287,0.579-0.479,0.771-0.561c4.652-1.971,9.306-3.935,13.96-5.888c3.063-1.287,6.131-2.534,9.193-3.843
	c0.877-0.375,1.049-1.195,0.965-3.821c-0.08-2.461-0.65-2.261-1.132-2.364c-3.083-0.663-6.168-1.272-9.252-1.888
	c-6.466-1.292-12.931-2.573-19.396-3.87c-1.153-0.232-2.306-0.52-3.458-0.782c-0.001-0.129-0.002-0.258-0.003-0.388
	c0.221-0.095,0.441-0.226,0.662-0.28c3.447-0.838,6.894-1.681,10.341-2.483c0.471-0.109,0.733-0.666,0.863-2.325
	c0.134-1.697,0.038-2.784-0.404-3.671c-0.765-1.538-1.519-3.133-2.275-4.716c-0.805-1.684-0.817-1.944-0.214-4.278
	c0.314-1.218,0.629-2.434,0.949-3.635c1.67-6.271,1.674-5.677,0.338-12.867c-0.529-2.851-0.765-5.726-0.754-9.086
	C26.279,31.06,26.248,19.79,26.24,8.521c-0.002-1.993-0.012-3.986-0.023-5.979c-0.009-1.67-0.253-2.496-0.767-2.539
	c-0.771-0.063-0.989,0.586-0.986,3.45c0.013,12.188,0.092,24.378,0.033,36.561c-0.027,5.682,0.113,10.976,1.214,15.569
	c0.33,1.377,0.229,2.621-0.113,3.881c-0.753,2.781-1.488,5.622-2.218,8.472c-0.665,2.594-0.573,4.578,0.276,6.427
	c0.381,0.831,0.759,1.68,1.139,2.521c-0.025,0.233-0.051,0.465-0.077,0.698c-0.214,0.096-0.426,0.229-0.641,0.282
	c-2.739,0.667-5.477,1.386-8.218,1.969c-5,1.064-10,2.057-15.001,3.049C0.212,83.011-0.003,83.728,0,86.096
	c0.003,2.369,0.214,3.068,0.869,3.152c2.605,0.336,5.212,0.589,7.814,1.1c8.933,1.752,17.864,3.599,26.796,5.416
	c1.11,0.226,2.221,0.493,3.331,0.741c-0.273,0.702-0.553,0.881-0.835,0.999c-5.222,2.187-10.442,4.358-15.664,6.563
	c-0.372,0.157-0.829,0.155-0.889,1.918c-0.059,1.712-0.045,3.275,0.526,4.287c1.132,2.002,2.233,4.196,3.347,6.313
	c1.114,2.115,1.14,2.364,0.011,4.572c-0.853,1.668-1.165,3.792-1.155,7.112c0.045,15.407,0.059,30.819-0.005,46.225
	c-0.018,4.261,0.236,7.739,1.16,10.761c0.574,1.876,0.511,2.42-0.157,3.853c-1.117,2.397-2.246,4.73-3.357,7.16
	c-0.786,1.718-0.734,4.642,0.099,6.158c0.623,1.132,1.263,2.158,1.888,3.276c0.155,0.278,0.283,0.732,0.539,1.415
	c-0.303,0.223-0.429,0.366-0.557,0.401c-3.946,1.07-7.893,2.135-11.839,3.188c-3.604,0.962-7.209,1.9-10.813,2.873
	c-0.515,0.139-1.012,0.318-0.995,2.808c0.017,2.373,0.341,3.321,1.019,3.23c0.204-0.027,0.41,0.139,0.615,0.178
	c10.831,2.062,21.662,4.116,32.492,6.18c1.467,0.279,2.932,0.609,4.396,0.915c-0.174,0.649-0.357,0.798-0.544,0.879
	c-5.148,2.263-10.298,4.529-15.447,6.76c-0.514,0.222-0.878,0.552-0.999,2.68c-0.128,2.266,0.225,3.041,0.701,3.83
	c1.127,1.869,2.253,3.739,3.375,5.644c0.668,1.135,0.688,1.676,0.134,3.206c-0.389,1.072-0.817,2.005-1.169,3.194
	c-0.186,0.628-0.348,1.674-0.347,2.529c0.014,23.226,0.052,46.451,0.082,69.677c0.017,12.648,0.022,25.297,0.04,37.946
	c0,0.532,0.012,0.967,0.032,1.352c-0.02,0.408-0.031,0.872-0.031,1.445c0.013,12.188,0.092,24.378,0.033,36.561
	c-0.027,5.682,0.113,10.976,1.214,15.569c0.33,1.377,0.229,2.621-0.113,3.881c-0.753,2.781-1.488,5.622-2.218,8.472
	c-0.665,2.594-0.573,4.578,0.276,6.427c0.381,0.831,0.759,1.68,1.139,2.521c-0.025,0.233-0.051,0.465-0.077,0.698
	c-0.214,0.096-0.426,0.229-0.641,0.282c-2.739,0.667-5.477,1.386-8.218,1.969c-5,1.064-10,2.057-15.001,3.049
	c-0.645,0.128-0.861,0.845-0.857,3.213c0.003,2.369,0.214,3.068,0.869,3.152c2.605,0.336,5.212,0.589,7.814,1.1
	c8.933,1.752,17.863,3.599,26.796,5.416c1.111,0.226,2.221,0.493,3.332,0.741c-0.273,0.702-0.553,0.881-0.836,0.999
	c-5.221,2.187-10.442,4.358-15.664,6.563c-0.372,0.157-0.829,0.155-0.889,1.918c-0.059,1.712-0.045,3.275,0.526,4.287
	c1.132,2.002,2.233,4.196,3.347,6.313c1.113,2.115,1.141,2.364,0.011,4.572c-0.853,1.668-1.165,3.792-1.155,7.112
	c0.045,15.407,0.059,30.819-0.005,46.225c-0.018,4.261,0.236,7.739,1.16,10.761c0.574,1.876,0.511,2.42-0.157,3.853
	c-1.117,2.397-2.246,4.73-3.357,7.16c-0.786,1.718-0.734,4.642,0.099,6.158c0.623,1.132,1.263,2.158,1.888,3.276
	c0.155,0.278,0.283,0.732,0.539,1.415c-0.303,0.223-0.429,0.366-0.557,0.401c-3.946,1.07-7.893,2.135-11.839,3.188
	c-3.604,0.962-7.209,1.9-10.813,2.873c-0.515,0.139-1.012,0.318-0.995,2.808c0.017,2.373,0.341,3.321,1.019,3.23
	c0.204-0.027,0.41,0.139,0.615,0.178c10.831,2.062,21.662,4.116,32.492,6.18c1.467,0.279,2.932,0.609,4.396,0.915
	c-0.174,0.649-0.357,0.798-0.545,0.879c-5.148,2.263-10.298,4.529-15.447,6.76c-0.514,0.222-0.878,0.552-0.999,2.68
	c-0.128,2.266,0.225,3.041,0.701,3.83c1.127,1.869,2.253,3.739,3.375,5.644c0.668,1.135,0.688,1.676,0.134,3.206
	c-0.389,1.072-0.817,2.005-1.169,3.194c-0.186,0.628-0.348,1.674-0.347,2.529c0.014,23.226,0.052,46.451,0.082,69.677
	c0.017,12.648,0.022,25.297,0.04,37.946c0.003,2.638,0.208,3.356,0.885,3.343c0.676-0.012,0.868-0.72,0.87-3.38
	c0.006-5.596,0.006-11.192-0.002-16.789c-0.035-29.052-0.07-58.104-0.115-87.155c-0.004-1.766,0.158-3.069,0.588-4.129
	c0.625-1.546,1.236-3.172,1.828-4.855c0.59-1.667,0.51-4.469-0.164-5.711c-0.682-1.253-1.389-2.34-2.078-3.55
	c-0.197-0.348-0.369-0.866-0.653-1.546c0.305-0.317,0.452-0.549,0.604-0.616c5.354-2.336,10.708-4.658,16.062-6.98
	c2.178-0.945,4.357-1.891,6.535-2.827c0.545-0.234,0.949-0.71,0.928-3.072C49.731,586.32,49.427,585.532,48.825,585.518z"/>
<path fill-rule="evenodd" clip-rule="evenodd" d="M48.825,1310.518c-0.16-0.004-0.318-0.119-0.479-0.15
	c-4.113-0.789-8.227-1.575-12.338-2.357c-6.812-1.294-13.62-2.583-20.429-3.883c-0.223-0.043-0.443-0.186-0.665-0.281
	c1.773-0.939,3.528-1.417,5.283-1.885c2.441-0.649,4.882-1.295,7.323-1.934c0.525-0.139,0.867-0.686,0.982-2.754
	c0.113-2.01-0.156-2.814-0.6-3.563c-1.082-1.826-2.163-3.665-3.236-5.541c-0.228-0.398-0.427-0.98-0.72-1.664
	c0.301-0.778,0.502-1.377,0.725-1.858c0.884-1.909,1.782-3.755,2.663-5.675c0.785-1.705,0.869-3.663,0.275-6.12
	c-0.416-1.729-0.881-3.345-1.258-5.163c-0.209-1.008-0.396-2.327-0.398-3.51c-0.026-15.867-0.029-31.737,0.007-47.605
	c0.002-1.132,0.278-2.543,0.554-3.322c0.521-1.471,1.137-2.563,1.707-3.84c0.896-2.006,0.867-4.709-0.084-6.58
	c-0.768-1.515-1.553-2.938-2.325-4.436c-0.201-0.391-0.379-0.91-0.723-1.746c0.39-0.287,0.579-0.479,0.771-0.561
	c4.652-1.971,9.306-3.936,13.96-5.889c3.063-1.287,6.131-2.533,9.193-3.843c0.877-0.375,1.049-1.195,0.965-3.821
	c-0.08-2.461-0.65-2.261-1.133-2.364c-3.082-0.663-6.168-1.272-9.252-1.888c-6.465-1.293-12.931-2.573-19.396-3.87
	c-1.153-0.231-2.306-0.52-3.458-0.782c-0.001-0.129-0.002-0.258-0.003-0.388c0.221-0.095,0.441-0.226,0.662-0.28
	c3.447-0.838,6.894-1.681,10.34-2.482c0.471-0.109,0.734-0.666,0.863-2.324c0.135-1.697,0.039-2.784-0.404-3.672
	c-0.764-1.537-1.518-3.133-2.275-4.717c-0.805-1.684-0.817-1.943-0.214-4.277c0.313-1.218,0.63-2.434,0.948-3.635
	c1.67-6.271,1.674-5.678,0.338-12.867c-0.529-2.852-0.764-5.727-0.754-9.087c0.035-11.267,0.004-22.537-0.004-33.806
	c-0.002-1.992-0.012-3.986-0.023-5.979c-0.001-0.253-0.01-0.48-0.021-0.695c0.014-0.357,0.023-0.751,0.023-1.227
	c0.006-5.596,0.005-11.193-0.002-16.789c-0.035-29.052-0.07-58.104-0.115-87.155c-0.004-1.766,0.158-3.069,0.588-4.129
	c0.625-1.546,1.235-3.173,1.828-4.854c0.59-1.668,0.51-4.469-0.165-5.712c-0.681-1.253-1.388-2.341-2.077-3.55
	c-0.197-0.348-0.369-0.865-0.653-1.547c0.305-0.316,0.451-0.549,0.604-0.615c5.354-2.336,10.707-4.658,16.061-6.98
	c2.179-0.944,4.357-1.891,6.535-2.826c0.545-0.234,0.949-0.711,0.928-3.072c-0.02-2.223-0.323-3.012-0.926-3.025
	c-0.16-0.004-0.318-0.12-0.479-0.15c-4.113-0.789-8.227-1.576-12.338-2.357c-6.811-1.295-13.619-2.584-20.428-3.884
	c-0.223-0.042-0.443-0.185-0.665-0.28c1.773-0.939,3.528-1.418,5.283-1.885c2.441-0.65,4.882-1.295,7.324-1.935
	c0.525-0.138,0.867-0.685,0.982-2.753c0.113-2.011-0.157-2.814-0.6-3.563c-1.082-1.827-2.163-3.666-3.237-5.541
	c-0.228-0.398-0.427-0.98-0.72-1.664c0.301-0.779,0.502-1.377,0.725-1.859c0.884-1.908,1.781-3.754,2.663-5.674
	c0.784-1.705,0.868-3.664,0.275-6.121c-0.416-1.729-0.881-3.344-1.258-5.163c-0.209-1.007-0.397-2.327-0.399-3.509
	c-0.026-15.868-0.029-31.738,0.007-47.605c0.002-1.133,0.279-2.543,0.554-3.322c0.521-1.472,1.136-2.564,1.707-3.84
	c0.896-2.006,0.866-4.709-0.084-6.581c-0.769-1.514-1.554-2.937-2.325-4.435c-0.201-0.39-0.379-0.91-0.723-1.747
	c0.39-0.287,0.579-0.479,0.771-0.561c4.652-1.971,9.306-3.935,13.96-5.888c3.063-1.287,6.131-2.534,9.193-3.843
	c0.877-0.375,1.049-1.195,0.965-3.821c-0.08-2.461-0.65-2.261-1.132-2.364c-3.083-0.663-6.168-1.272-9.252-1.888
	c-6.466-1.292-12.931-2.573-19.396-3.87c-1.153-0.232-2.306-0.52-3.458-0.782c-0.001-0.129-0.002-0.258-0.003-0.388
	c0.221-0.095,0.441-0.226,0.662-0.28c3.447-0.838,6.894-1.681,10.341-2.483c0.471-0.109,0.733-0.666,0.863-2.325
	c0.134-1.697,0.038-2.784-0.404-3.671c-0.765-1.538-1.519-3.133-2.275-4.716c-0.805-1.684-0.817-1.944-0.214-4.278
	c0.314-1.218,0.629-2.434,0.949-3.635c1.67-6.271,1.674-5.677,0.338-12.867c-0.529-2.851-0.765-5.726-0.754-9.086
	c0.035-11.267,0.004-22.537-0.004-33.806c-0.002-1.993-0.012-3.986-0.023-5.979c-0.009-1.67-0.253-2.496-0.767-2.539
	c-0.771-0.063-0.989,0.586-0.986,3.45c0.013,12.188,0.092,24.378,0.033,36.561c-0.027,5.682,0.113,10.976,1.214,15.569
	c0.33,1.377,0.229,2.621-0.113,3.881c-0.753,2.781-1.488,5.622-2.218,8.472c-0.665,2.594-0.573,4.578,0.276,6.427
	c0.381,0.831,0.759,1.68,1.139,2.521c-0.025,0.233-0.051,0.465-0.077,0.698c-0.214,0.096-0.426,0.229-0.641,0.282
	c-2.739,0.667-5.477,1.386-8.218,1.969c-5,1.064-10,2.057-15.001,3.049c-0.645,0.128-0.861,0.845-0.857,3.213
	c0.003,2.369,0.214,3.068,0.869,3.152c2.605,0.336,5.212,0.589,7.814,1.1c8.933,1.752,17.864,3.599,26.796,5.416
	c1.11,0.226,2.221,0.493,3.331,0.741c-0.273,0.702-0.553,0.881-0.835,0.999c-5.222,2.187-10.442,4.358-15.664,6.563
	c-0.372,0.157-0.829,0.155-0.889,1.918c-0.059,1.712-0.045,3.275,0.526,4.287c1.132,2.002,2.233,4.196,3.347,6.313
	c1.114,2.115,1.14,2.364,0.011,4.572c-0.853,1.668-1.165,3.792-1.155,7.112c0.045,15.407,0.059,30.819-0.005,46.225
	c-0.018,4.261,0.236,7.739,1.16,10.761c0.574,1.877,0.511,2.42-0.157,3.854c-1.117,2.396-2.246,4.729-3.357,7.159
	c-0.786,1.718-0.734,4.642,0.099,6.157c0.623,1.133,1.263,2.158,1.888,3.277c0.155,0.277,0.283,0.732,0.539,1.414
	c-0.303,0.223-0.429,0.367-0.557,0.401c-3.946,1.069-7.893,2.136-11.839,3.188c-3.604,0.961-7.209,1.9-10.813,2.873
	c-0.515,0.139-1.012,0.318-0.995,2.807c0.017,2.373,0.341,3.322,1.019,3.23c0.204-0.026,0.41,0.14,0.615,0.179
	c10.831,2.062,21.662,4.116,32.492,6.181c1.467,0.279,2.932,0.608,4.396,0.914c-0.174,0.65-0.357,0.799-0.544,0.88
	c-5.148,2.263-10.298,4.528-15.447,6.76c-0.514,0.222-0.878,0.552-0.999,2.681c-0.128,2.266,0.225,3.041,0.701,3.829
	c1.127,1.868,2.253,3.739,3.375,5.644c0.668,1.135,0.688,1.676,0.134,3.205c-0.389,1.072-0.817,2.006-1.169,3.195
	c-0.186,0.627-0.348,1.674-0.347,2.529c0.014,23.225,0.052,46.451,0.082,69.676c0.017,12.648,0.022,25.298,0.04,37.946
	c0,0.532,0.012,0.967,0.032,1.353c-0.02,0.408-0.031,0.871-0.031,1.445c0.013,12.188,0.092,24.377,0.033,36.561
	c-0.027,5.682,0.113,10.976,1.214,15.569c0.33,1.378,0.229,2.62-0.113,3.881c-0.753,2.781-1.488,5.622-2.218,8.472
	c-0.665,2.595-0.573,4.578,0.276,6.428c0.381,0.831,0.759,1.68,1.139,2.521c-0.025,0.233-0.051,0.466-0.077,0.698
	c-0.214,0.096-0.426,0.229-0.641,0.281c-2.739,0.668-5.477,1.387-8.218,1.969c-5,1.064-10,2.057-15.001,3.049
	c-0.645,0.129-0.861,0.846-0.857,3.213c0.003,2.369,0.214,3.068,0.869,3.152c2.605,0.336,5.212,0.59,7.814,1.1
	c8.933,1.753,17.863,3.6,26.796,5.416c1.111,0.227,2.221,0.492,3.332,0.74c-0.273,0.703-0.553,0.881-0.836,0.999
	c-5.221,2.187-10.442,4.358-15.664,6.563c-0.372,0.156-0.829,0.154-0.889,1.918c-0.059,1.712-0.045,3.275,0.526,4.287
	c1.132,2.002,2.233,4.195,3.347,6.313c1.113,2.115,1.141,2.365,0.011,4.572c-0.853,1.669-1.165,3.793-1.155,7.113
	c0.045,15.406,0.059,30.818-0.005,46.225c-0.018,4.26,0.236,7.738,1.16,10.761c0.574,1.876,0.511,2.42-0.157,3.853
	c-1.117,2.396-2.246,4.73-3.357,7.16c-0.786,1.718-0.734,4.642,0.099,6.157c0.623,1.132,1.263,2.157,1.888,3.276
	c0.155,0.278,0.283,0.732,0.539,1.415c-0.303,0.223-0.429,0.366-0.557,0.401c-3.946,1.069-7.893,2.135-11.839,3.188
	c-3.604,0.962-7.209,1.9-10.813,2.873c-0.515,0.139-1.012,0.318-0.995,2.808c0.017,2.373,0.341,3.321,1.019,3.23
	c0.204-0.026,0.41,0.14,0.615,0.179c10.831,2.061,21.662,4.115,32.492,6.18c1.467,0.279,2.932,0.609,4.396,0.915
	c-0.174,0.649-0.357,0.798-0.545,0.88c-5.148,2.263-10.298,4.528-15.447,6.76c-0.514,0.222-0.878,0.552-0.999,2.68
	c-0.128,2.266,0.225,3.041,0.701,3.83c1.127,1.868,2.253,3.738,3.375,5.643c0.668,1.136,0.688,1.677,0.134,3.206
	c-0.389,1.072-0.817,2.005-1.169,3.194c-0.186,0.628-0.348,1.674-0.347,2.529c0.014,23.226,0.052,46.451,0.082,69.677
	c0.017,12.648,0.022,25.298,0.04,37.946c0.003,2.638,0.208,3.355,0.885,3.343c0.676-0.013,0.868-0.72,0.87-3.38
	c0.006-5.596,0.006-11.192-0.002-16.789c-0.035-29.051-0.07-58.104-0.115-87.154c-0.004-1.766,0.158-3.069,0.588-4.129
	c0.625-1.547,1.236-3.173,1.828-4.855c0.59-1.667,0.51-4.469-0.164-5.711c-0.682-1.254-1.389-2.341-2.078-3.551
	c-0.197-0.348-0.369-0.865-0.653-1.546c0.305-0.317,0.452-0.55,0.604-0.616c5.354-2.336,10.708-4.657,16.062-6.979
	c2.178-0.944,4.357-1.891,6.535-2.827c0.545-0.234,0.949-0.71,0.928-3.072C49.731,1311.32,49.427,1310.532,48.825,1310.518z"/>
<path fill-rule="evenodd" clip-rule="evenodd" d="M48.825,2027.518c-0.16-0.004-0.318-0.119-0.479-0.15
	c-4.113-0.789-8.227-1.575-12.338-2.357c-6.812-1.294-13.62-2.583-20.429-3.883c-0.223-0.043-0.443-0.186-0.665-0.281
	c1.773-0.939,3.528-1.417,5.283-1.885c2.441-0.649,4.882-1.295,7.323-1.934c0.525-0.139,0.867-0.686,0.982-2.754
	c0.113-2.01-0.156-2.814-0.6-3.563c-1.082-1.826-2.163-3.665-3.236-5.541c-0.228-0.398-0.427-0.98-0.72-1.664
	c0.301-0.778,0.502-1.377,0.725-1.858c0.884-1.909,1.782-3.755,2.663-5.675c0.785-1.705,0.869-3.663,0.275-6.12
	c-0.416-1.729-0.881-3.345-1.258-5.163c-0.209-1.008-0.396-2.327-0.398-3.51c-0.026-15.867-0.029-31.737,0.007-47.605
	c0.002-1.132,0.278-2.543,0.554-3.322c0.521-1.471,1.137-2.563,1.707-3.84c0.896-2.006,0.867-4.709-0.084-6.58
	c-0.768-1.515-1.553-2.938-2.325-4.436c-0.201-0.391-0.379-0.91-0.723-1.746c0.39-0.287,0.579-0.479,0.771-0.561
	c4.652-1.971,9.306-3.936,13.96-5.889c3.063-1.287,6.131-2.533,9.193-3.843c0.877-0.375,1.049-1.195,0.965-3.821
	c-0.08-2.461-0.65-2.261-1.133-2.364c-3.082-0.663-6.168-1.272-9.252-1.888c-6.465-1.293-12.931-2.573-19.396-3.87
	c-1.153-0.231-2.306-0.52-3.458-0.782c-0.001-0.129-0.002-0.258-0.003-0.388c0.221-0.095,0.441-0.226,0.662-0.28
	c3.447-0.838,6.894-1.681,10.34-2.482c0.471-0.109,0.734-0.666,0.863-2.324c0.135-1.697,0.039-2.784-0.404-3.672
	c-0.764-1.537-1.518-3.133-2.275-4.717c-0.805-1.684-0.817-1.943-0.214-4.277c0.313-1.218,0.63-2.434,0.948-3.635
	c1.67-6.271,1.674-5.678,0.338-12.867c-0.529-2.852-0.764-5.727-0.754-9.087c0.035-11.267,0.004-22.537-0.004-33.806
	c-0.002-1.992-0.012-3.986-0.023-5.979c-0.001-0.253-0.01-0.48-0.021-0.695c0.014-0.357,0.023-0.751,0.023-1.227
	c0.006-5.596,0.005-11.193-0.002-16.789c-0.035-29.052-0.07-58.104-0.115-87.155c-0.004-1.766,0.158-3.069,0.588-4.129
	c0.625-1.546,1.235-3.173,1.828-4.854c0.59-1.668,0.51-4.469-0.165-5.712c-0.681-1.253-1.388-2.341-2.077-3.55
	c-0.197-0.348-0.369-0.865-0.653-1.547c0.305-0.316,0.451-0.549,0.604-0.615c5.354-2.336,10.707-4.658,16.061-6.98
	c2.179-0.944,4.357-1.891,6.535-2.826c0.545-0.234,0.949-0.711,0.928-3.072c-0.02-2.223-0.323-3.012-0.926-3.025
	c-0.16-0.004-0.318-0.12-0.479-0.15c-4.113-0.789-8.227-1.576-12.338-2.357c-6.811-1.295-13.619-2.584-20.428-3.884
	c-0.223-0.042-0.443-0.185-0.665-0.28c1.773-0.939,3.528-1.418,5.283-1.885c2.441-0.65,4.882-1.295,7.324-1.935
	c0.525-0.138,0.867-0.685,0.982-2.753c0.113-2.011-0.157-2.814-0.6-3.563c-1.082-1.827-2.163-3.666-3.237-5.541
	c-0.228-0.398-0.427-0.98-0.72-1.664c0.301-0.779,0.502-1.377,0.725-1.859c0.884-1.908,1.781-3.754,2.663-5.674
	c0.784-1.705,0.868-3.664,0.275-6.121c-0.416-1.729-0.881-3.344-1.258-5.163c-0.209-1.007-0.397-2.327-0.399-3.509
	c-0.026-15.868-0.029-31.738,0.007-47.605c0.002-1.133,0.279-2.543,0.554-3.322c0.521-1.472,1.136-2.564,1.707-3.84
	c0.896-2.006,0.866-4.709-0.084-6.581c-0.769-1.515-1.554-2.937-2.325-4.435c-0.201-0.391-0.379-0.91-0.723-1.747
	c0.39-0.286,0.579-0.479,0.771-0.561c4.652-1.971,9.306-3.935,13.96-5.888c3.063-1.287,6.131-2.534,9.193-3.844
	c0.877-0.375,1.049-1.195,0.965-3.82c-0.08-2.461-0.65-2.262-1.132-2.365c-3.083-0.662-6.168-1.271-9.252-1.888
	c-6.466-1.292-12.931-2.573-19.396-3.87c-1.153-0.231-2.306-0.52-3.458-0.781c-0.001-0.13-0.002-0.259-0.003-0.389
	c0.221-0.095,0.441-0.225,0.662-0.279c3.447-0.838,6.894-1.682,10.341-2.482c0.471-0.109,0.733-0.666,0.863-2.325
	c0.134-1.697,0.038-2.784-0.404-3.671c-0.765-1.538-1.519-3.133-2.275-4.717c-0.805-1.684-0.817-1.943-0.214-4.277
	c0.314-1.219,0.629-2.435,0.949-3.636c1.67-6.271,1.674-5.677,0.338-12.867c-0.529-2.851-0.765-5.726-0.754-9.087
	c0.035-11.267,0.004-22.537-0.004-33.805c-0.002-1.993-0.012-3.986-0.023-5.979c-0.009-1.67-0.253-2.496-0.767-2.539
	c-0.771-0.063-0.989,0.586-0.986,3.45c0.013,12.188,0.092,24.378,0.033,36.562c-0.027,5.682,0.113,10.975,1.214,15.568
	c0.33,1.378,0.229,2.621-0.113,3.881c-0.753,2.781-1.488,5.623-2.218,8.473c-0.665,2.594-0.573,4.578,0.276,6.428
	c0.381,0.83,0.759,1.68,1.139,2.52c-0.025,0.233-0.051,0.466-0.077,0.699c-0.214,0.096-0.426,0.229-0.641,0.281
	c-2.739,0.668-5.477,1.386-8.218,1.969c-5,1.064-10,2.057-15.001,3.049c-0.645,0.129-0.861,0.846-0.857,3.213
	c0.003,2.369,0.214,3.068,0.869,3.152c2.605,0.336,5.212,0.589,7.814,1.1c8.933,1.752,17.864,3.599,26.796,5.416
	c1.11,0.226,2.221,0.492,3.331,0.74c-0.273,0.702-0.553,0.881-0.835,0.998c-5.222,2.188-10.442,4.359-15.664,6.563
	c-0.372,0.157-0.829,0.155-0.889,1.919c-0.059,1.711-0.045,3.274,0.526,4.286c1.132,2.002,2.233,4.196,3.347,6.313
	c1.114,2.115,1.14,2.364,0.011,4.572c-0.853,1.668-1.165,3.793-1.155,7.112c0.045,15.407,0.059,30.819-0.005,46.225
	c-0.018,4.261,0.236,7.739,1.16,10.761c0.574,1.877,0.511,2.42-0.157,3.854c-1.117,2.396-2.246,4.729-3.357,7.159
	c-0.786,1.718-0.734,4.642,0.099,6.157c0.623,1.133,1.263,2.158,1.888,3.277c0.155,0.277,0.283,0.732,0.539,1.414
	c-0.303,0.223-0.429,0.367-0.557,0.401c-3.946,1.069-7.893,2.136-11.839,3.188c-3.604,0.961-7.209,1.9-10.813,2.873
	c-0.515,0.139-1.012,0.318-0.995,2.807c0.017,2.373,0.341,3.322,1.019,3.23c0.204-0.026,0.41,0.14,0.615,0.179
	c10.831,2.062,21.662,4.116,32.492,6.181c1.467,0.279,2.932,0.608,4.396,0.914c-0.174,0.65-0.357,0.799-0.544,0.88
	c-5.148,2.263-10.298,4.528-15.447,6.76c-0.514,0.222-0.878,0.552-0.999,2.681c-0.128,2.266,0.225,3.041,0.701,3.829
	c1.127,1.868,2.253,3.739,3.375,5.644c0.668,1.135,0.688,1.676,0.134,3.205c-0.389,1.072-0.817,2.006-1.169,3.195
	c-0.186,0.627-0.348,1.674-0.347,2.529c0.014,23.225,0.052,46.451,0.082,69.676c0.017,12.648,0.022,25.298,0.04,37.946
	c0,0.532,0.012,0.967,0.032,1.353c-0.02,0.408-0.031,0.871-0.031,1.445c0.013,12.188,0.092,24.377,0.033,36.561
	c-0.027,5.682,0.113,10.976,1.214,15.569c0.33,1.378,0.229,2.62-0.113,3.881c-0.753,2.781-1.488,5.622-2.218,8.472
	c-0.665,2.595-0.573,4.578,0.276,6.428c0.381,0.831,0.759,1.68,1.139,2.521c-0.025,0.233-0.051,0.466-0.077,0.698
	c-0.214,0.096-0.426,0.229-0.641,0.281c-2.739,0.668-5.477,1.387-8.218,1.969c-5,1.064-10,2.057-15.001,3.049
	c-0.645,0.129-0.861,0.846-0.857,3.213c0.003,2.369,0.214,3.068,0.869,3.152c2.605,0.336,5.212,0.59,7.814,1.1
	c8.933,1.753,17.863,3.6,26.796,5.416c1.111,0.227,2.221,0.492,3.332,0.74c-0.273,0.703-0.553,0.881-0.836,0.999
	c-5.221,2.187-10.442,4.358-15.664,6.563c-0.372,0.156-0.829,0.154-0.889,1.918c-0.059,1.712-0.045,3.275,0.526,4.287
	c1.132,2.002,2.233,4.195,3.347,6.313c1.113,2.115,1.141,2.365,0.011,4.572c-0.853,1.669-1.165,3.793-1.155,7.113
	c0.045,15.406,0.059,30.818-0.005,46.225c-0.018,4.26,0.236,7.738,1.16,10.761c0.574,1.876,0.511,2.42-0.157,3.853
	c-1.117,2.396-2.246,4.73-3.357,7.16c-0.786,1.718-0.734,4.642,0.099,6.157c0.623,1.132,1.263,2.157,1.888,3.276
	c0.155,0.278,0.283,0.732,0.539,1.415c-0.303,0.223-0.429,0.366-0.557,0.401c-3.946,1.069-7.893,2.135-11.839,3.188
	c-3.604,0.962-7.209,1.9-10.813,2.873c-0.515,0.139-1.012,0.318-0.995,2.808c0.017,2.373,0.341,3.321,1.019,3.23
	c0.204-0.026,0.41,0.14,0.615,0.179c10.831,2.061,21.662,4.115,32.492,6.18c1.467,0.279,2.932,0.609,4.396,0.915
	c-0.174,0.649-0.357,0.798-0.545,0.88c-5.148,2.263-10.298,4.528-15.447,6.76c-0.514,0.222-0.878,0.552-0.999,2.68
	c-0.128,2.266,0.225,3.041,0.701,3.83c1.127,1.868,2.253,3.738,3.375,5.643c0.668,1.136,0.688,1.677,0.134,3.206
	c-0.389,1.072-0.817,2.005-1.169,3.194c-0.186,0.628-0.348,1.674-0.347,2.529c0.014,23.226,0.052,46.451,0.082,69.677
	c0.017,12.648,0.022,25.298,0.04,37.946c0.003,2.638,0.208,3.355,0.885,3.343c0.676-0.013,0.868-0.72,0.87-3.38
	c0.006-5.596,0.006-11.192-0.002-16.789c-0.035-29.051-0.07-58.104-0.115-87.154c-0.004-1.766,0.158-3.069,0.588-4.129
	c0.625-1.547,1.236-3.173,1.828-4.855c0.59-1.667,0.51-4.469-0.164-5.711c-0.682-1.254-1.389-2.341-2.078-3.551
	c-0.197-0.348-0.369-0.865-0.653-1.546c0.305-0.317,0.452-0.55,0.604-0.616c5.354-2.336,10.708-4.657,16.062-6.979
	c2.178-0.944,4.357-1.891,6.535-2.827c0.545-0.234,0.949-0.71,0.928-3.072C49.731,2028.32,49.427,2027.532,48.825,2027.518z"/>
</svg>
